<svg id="Layer_2" data-name="Layer 2" xmlns="http://www.w3.org/2000/svg" viewBox="0 0 64 78.4"><defs><style>.cls-1{fill:#203e45;}.cls-2{fill:#d26328;}</style></defs><title>uloahia-web_logo</title><path class="cls-1" d="M12.56,73.65c0,2.57-1.33,3.85-4,3.85s-4.08-1.28-4.08-3.85V70a1,1,0,0,1,.41-.89,1.55,1.55,0,0,1,1-.31,1.55,1.55,0,0,1,1,.31,1,1,0,0,1,.41.89V74q0,1.08,1.29,1.08c.86,0,1.28-.36,1.28-1.08V70a1,1,0,0,1,.41-.89,1.67,1.67,0,0,1,1.94,0,1,1,0,0,1,.41.89Z"/><path class="cls-1" d="M15,77.5c-.91,0-1.37-.4-1.37-1.21V70a1,1,0,0,1,.41-.89,1.64,1.64,0,0,1,1.92,0,1,1,0,0,1,.41.89v5.11h1.47a1.26,1.26,0,0,1,1,.36,1.27,1.27,0,0,1,0,1.71,1.26,1.26,0,0,1-1,.36Z"/><path class="cls-1" d="M19.73,73.09a4,4,0,0,1,.4-1.74,4.73,4.73,0,0,1,1.09-1.43,5.21,5.21,0,0,1,1.62-1,5.68,5.68,0,0,1,4,0,5.37,5.37,0,0,1,1.63,1,4.73,4.73,0,0,1,1.09,1.43,4,4,0,0,1,0,3.49,4.57,4.57,0,0,1-1.09,1.42,5.59,5.59,0,0,1-1.63.95,5.83,5.83,0,0,1-4,0,5.41,5.41,0,0,1-1.62-.95,4.57,4.57,0,0,1-1.09-1.42,4,4,0,0,1-.4-1.75m2.81,0a1.86,1.86,0,0,0,.17.79,2.1,2.1,0,0,0,.5.65,2.31,2.31,0,0,0,.73.43,2.67,2.67,0,0,0,.91.15,2.76,2.76,0,0,0,.91-.15,2.2,2.2,0,0,0,.73-.43,2.07,2.07,0,0,0,.49-.65,1.62,1.62,0,0,0,.19-.79,1.65,1.65,0,0,0-.19-.79,2,2,0,0,0-.49-.65,2.39,2.39,0,0,0-.73-.43,2.53,2.53,0,0,0-.91-.16,2.45,2.45,0,0,0-.91.16,2.51,2.51,0,0,0-.73.43,2,2,0,0,0-.5.65,1.9,1.9,0,0,0-.17.79"/><path class="cls-1" d="M36.09,75.8h-3l-.42.94a1.3,1.3,0,0,1-.51.59,1.48,1.48,0,0,1-.71.19,1.71,1.71,0,0,1-.55-.09,1.58,1.58,0,0,1-.47-.23,1.06,1.06,0,0,1-.34-.36.81.81,0,0,1-.13-.47,1,1,0,0,1,.12-.48l3.29-6.37a1.43,1.43,0,0,1,.58-.61,1.53,1.53,0,0,1,.76-.21,1.46,1.46,0,0,1,.74.21,1.24,1.24,0,0,1,.54.61l3,6.37a1,1,0,0,1,.12.48.91.91,0,0,1-.13.46,1.09,1.09,0,0,1-.34.37,1.69,1.69,0,0,1-.49.23,1.64,1.64,0,0,1-.53.09,1.49,1.49,0,0,1-.72-.19,1.13,1.13,0,0,1-.5-.59ZM34,73.9h1.34l-.62-1.57Z"/><path class="cls-1" d="M47.81,76.29a1.06,1.06,0,0,1-.41.89,1.61,1.61,0,0,1-1,.31,1.58,1.58,0,0,1-1-.31,1.06,1.06,0,0,1-.41-.89v-2H42.81v2a1,1,0,0,1-.41.89,1.67,1.67,0,0,1-1.94,0,1.06,1.06,0,0,1-.41-.89V70a1,1,0,0,1,.41-.89,1.67,1.67,0,0,1,1.94,0,1,1,0,0,1,.41.89v2h2.24V70a1,1,0,0,1,.41-.89,1.51,1.51,0,0,1,1-.31,1.55,1.55,0,0,1,1,.31,1,1,0,0,1,.41.89Z"/><path class="cls-1" d="M51.7,76.29a1,1,0,0,1-.41.89,1.58,1.58,0,0,1-1,.31,1.64,1.64,0,0,1-1-.31,1.06,1.06,0,0,1-.41-.89V70a1,1,0,0,1,.41-.89,1.57,1.57,0,0,1,1-.31,1.51,1.51,0,0,1,1,.31,1,1,0,0,1,.41.89Z"/><path class="cls-1" d="M58.64,75.8h-3l-.42.94a1.2,1.2,0,0,1-.51.59,1.42,1.42,0,0,1-.71.19,1.61,1.61,0,0,1-.54-.09A1.77,1.77,0,0,1,53,77.2a1.16,1.16,0,0,1-.34-.36.89.89,0,0,1-.13-.47,1,1,0,0,1,.12-.48L56,69.52a1.45,1.45,0,0,1,.59-.61,1.47,1.47,0,0,1,.75-.21,1.41,1.41,0,0,1,.74.21,1.26,1.26,0,0,1,.55.61l3,6.37a1,1,0,0,1,.12.48.82.82,0,0,1-.13.46,1,1,0,0,1-.34.37,1.53,1.53,0,0,1-.48.23,1.7,1.7,0,0,1-.54.09,1.55,1.55,0,0,1-.72-.19,1.13,1.13,0,0,1-.5-.59Zm-2.09-1.9h1.34l-.62-1.57Z"/><path class="cls-2" d="M51,25.14,45.2,22V52.6H19.66V21.42L13.16,25a9.52,9.52,0,0,1-7.38.72,8.25,8.25,0,0,0,0,.86V59.1c0,3.14,2.92,5.7,6.5,5.7H52.63c3.57,0,6.5-2.56,6.5-5.7V26.57A7.59,7.59,0,0,0,59,25.4a8.93,8.93,0,0,1-8-.26"/><path class="cls-1" d="M35.25,1.16,34.67.84a5.59,5.59,0,0,0-6.47.82L.17,17.05,1,18.37A9,9,0,0,0,6,22.26a9.5,9.5,0,0,0,7.37-.73L19.9,18l12-6.59-1.65-.91a5.42,5.42,0,0,1-1.39-1.09,5.11,5.11,0,0,0,.46.28l1.65.91,14.46,7.93,5.81,3.19a8.93,8.93,0,0,0,8,.26,8.3,8.3,0,0,0,3.66-3.24L64,16.94Z"/></svg>