<svg id="Layer_1" data-name="Layer 1" xmlns="http://www.w3.org/2000/svg" viewBox="0 0 64 78.4"><defs><style>.cls-1{fill:#d26328;}.cls-2{fill:#203e45;}</style></defs><title>Artboard 1</title><path class="cls-1" d="M50.94,30.22,45.1,26.38V63.27H19.43V25.74L12.89,30a8.16,8.16,0,0,1-7.41.88c0,.33-.05.68-.05,1V71.1A6.72,6.72,0,0,0,12,78h40.6A6.71,6.71,0,0,0,59.1,71.1V31.94a13,13,0,0,0-.08-1.4,7.69,7.69,0,0,1-8.08-.32"/><path class="cls-2" d="M35.1,1.37,34.51,1A4.92,4.92,0,0,0,28,2L-.17,20.48l.81,1.59a9.42,9.42,0,0,0,5.07,4.68,8.12,8.12,0,0,0,7.41-.87l6.55-4.3,12.06-7.93-1.66-1.09a5.86,5.86,0,0,1-1.4-1.32c.15.12.31.23.47.34l1.66,1.09,14.53,9.55,5.84,3.84a7.71,7.71,0,0,0,8.08.32,9.14,9.14,0,0,0,3.67-3.9L64,20.36Z"/></svg>